<svg xmlns="http://www.w3.org/2000/svg" xmlns:xlink="http://www.w3.org/1999/xlink" viewBox="0 0 278.99 339.97"><defs><style>.cls-1{fill:#1a1a1a;}.cls-2{fill:#1b1b1b;}.cls-3{fill:#1c1c1c;}.cls-4{fill:#2d2c2e;}.cls-5{fill:#202022;}.cls-6{fill:#1f1e20;}.cls-7{fill:#201f22;}.cls-8{fill:#201f21;}.cls-9{fill:#252426;}.cls-10{clip-path:url(#clip-path);}.cls-11{clip-path:url(#clip-path-2);}</style><clipPath id="clip-path"><path class="cls-1" d="M276.58,146c-.25-11.15-.31-22.32,0-33.47.11-3.87-1.43-4.73-4.77-5.08-6.18-.63-12.3.41-18.46.27-9.56-.22-16.94-4.54-20.94-12.86-3.69-7.7-1.64-15.53,3.07-22.62,4.19-6.33,9.87-11.22,15.72-15.9,2.37-1.91,2.77-3.39.3-5.78q-12.92-12.45-25.3-25.29c-2-2.06-3.2-1.7-4.8.07-3.79,4.18-7.6,8.33-11.4,12.5-6.52,7.15-14.6,9.8-23.89,7.45-9.53-2.41-14.54-9.07-16.31-18.66a70.61,70.61,0,0,1-.38-21.86c.42-3.28-.34-4.83-4.12-4.75-11.69.24-23.35.24-35,.14-2.91,0-3.7,1-3.63,3.78a115.38,115.38,0,0,1-1.33,23.41c-1.44,8.18-5.87,13.61-13.87,16.61-10,3.84-17.9-.07-25.17-6.16A167.87,167.87,0,0,1,73.51,25.26c-1.6-1.67-2.5-1.87-4.28-.09C60,34.42,50.55,43.52,41,52.89c2.67,2.56,4.8,4.65,7,6.65A90.83,90.83,0,0,1,59.12,71.67c5.8,7.63,6.52,15.82,2.64,24.39s-11.08,12-20,12.3c-6.47.18-13-.27-19.47-.33-2.33,0-4,.41-4,3.62.13,11.65.07,23.31-.26,34.95-.1,4,1.54,4.9,5,4.59,3.68-.34,7.34-.67,11-.67,12.58-.15,24.25,1.84,31.38,15.19,1.47-18.47,3.42-35.84,4-53.26.39-11,8-17.53,12.58-26a5.46,5.46,0,0,1,.43,2.65q-3.25,45.81-6.5,91.62-.73,11.22-1.48,22.42c-.1,1.42.11,2.84,1.81,2.88s.84-1.41.9-2.15C78.67,183,80,162,81.54,141.14c1.28-16.93,2.78-33.84,4-50.76.29-3.48,1.34-3.86,4.29-2.48,5.12,2.38,10.35,4.53,15.59,6.62,1.91.79,2.91,1.77,2.91,4,.18,14.63.65,29.25-3.47,43.57-.66,2.29-.87,2.83-3.39,2-5.63-1.86-10.92-4.8-16.92-5.5-1.21,7.41-1,7.79,5.68,10.07,3,1,6,1.87,8.91,3,1,.38,2,.81,2.12,2.54-4.73-1.09-8.84-2.77-13.05-4.16-1.58-.52-3.46-1.9-4.58.76l-.24,4.75c-.86,3.42,2.1,3.17,3.87,3.93,4,1.69,8.57,2,12.34,5.1-2.4,1.37-4,0-5.63-.45-3.87-1.07-7.34-3.23-11.28-4.12-.1,1.85-.19,3.69-.29,5.54-1.21,3.27.34,4.71,3.34,5.71,3.87,1.29,8.19,1.71,12.35,5.48-4.51-.29-7.36-2-10.46-2.81-2-.53-4.43-2.2-6,.89l-.17,4.72c-1,3.27,1.81,2.87,3.46,3.45,3.51,1.29,7.45,1.65,10.28,4.48-2.88.55-5.25-.72-7.71-1.56-5.77-2-5.93-1.91-6.84,4.09-.2,2.57,1.56,3.35,3.56,3.9,2.88.77,5.71,1.81,8.62,2.36,2.46.47,2.73,1.48,2.24,3.76C93.86,205.81,94,206,100.29,206q43.92,0,87.86.05c10.64,0,10.75,0,8.13-10.4-.68-2.66.14-3,2.42-3.28,5.77-.69,11.49-1.78,17.26-2.5,5.37-.68,1.87-4.29,2.17-6.52.38-2.82-1.45-2.54-3.55-2.07-5.67,1.28-11.41,2.22-17.08,3.5-1.89.43-3.42,1.16-4-1.68-.48-2.36.31-3.37,2.58-3.77,4.73-.84,9.42-2,14.17-2.69,8-1.21,8.14-1.33,6.78-9.78-6.26,1.7-12.5,3.34-18.71,5.09-6.91,1.94-7.78,1.31-7.4-5.69.89-16.28,1.82-32.55,2.51-48.84.1-3.15,1.19-4.74,4.1-5.83,5.75-2.13,11.35-4.64,17-7,3.25-.54,3.8,3,6,4,1.77,5.28,5.92,9.44,6.21,15.52.63,13.29,1.86,26.55,2.86,39.82.07.92-.74,2.35,1.14,2.84,2.36-7.13,7.81-10.87,14.6-13A73.6,73.6,0,0,1,272,150.66C275.9,150.9,276.66,149.61,276.58,146Zm-148-74.78c4.17-2.6,7.76-6.15,12.23-9.78V76a2.3,2.3,0,0,1-1,1.53c-6.31,4.07-12.52,8.08-19.31,12.48C120.58,82,121.62,75.5,128.54,71.2Zm-11.85,37.73c.21-7.4,2.52-13.18,10-16.46,5-2.12,9.23-5.7,14.5-9.09,0,4.82-.06,8.74,0,12.67,0,1.84-1.11,2.62-2.44,3.4-6.42,3.81-12.83,7.65-19.28,11.43a3.28,3.28,0,0,1-2.27.62C116,111.05,116.67,109.84,116.69,108.93Zm6.57,6.51c6.09-2.28,11.46-6.47,17.91-10.25v13.48c0,1.37-.92,2.06-2,2.62l-25.62,13.36C114.45,126.45,113.92,118.94,123.26,115.44Zm-11.88,26.74c.33-2,2.28-2.34,3.65-3,7.75-3.75,15.61-7.27,23.38-11,2-1,3.14-1.08,2.92,1.63v1c-.75,14.13,2.36,10.52-10.88,16.38-6.78,3-13.71,5.64-21.3,8.75C110,150.94,110.67,146.54,111.38,142.18Zm22.34,46.64c-8.79,2.93-17.38,6.5-26,10-2.68,1.08-4.19,1.28-3.54-2.32a5.33,5.33,0,0,0,.12-1.49c-.63-7.06,2.12-11.21,9.33-13.3,7.43-2.15,14.47-5.67,21.67-8.61,5.58-2.29,5.57-2.31,5.61,3.78l0,2.78C142.54,185.1,138.93,187.09,133.72,188.82Zm-2.38-21c-8,3.38-16.08,6.74-24.48,10.29-.35-4.88,1.2-8.83,1.66-12.92.17-1.48,1.21-1.82,2.26-2.32l27.45-13c1.74-.82,2.92-.69,2.86,1.63a4.17,4.17,0,0,0,0,.5C142,163.41,142,163.39,131.34,167.8Zm28.65-81a9.21,9.21,0,0,0,1.78.88c8.8,2.16,10.54,8.73,10.37,17.13-6.2-2.52-12-4.94-17.85-7.25-2.8-1.11-2.09-3.45-2.11-5.5C152.08,82.92,152.1,82.92,160,86.79ZM152,73V62.24a57.43,57.43,0,0,1,15.3,10.31c2.77,2.7,2.36,7.66,3.52,13-6.41-3.47-11.74-6.37-17.09-9.25A3.24,3.24,0,0,1,152,73Zm.14,39.83c-.1-8.5,0-8.49,7.73-5.42,1.23.48,2.5.88,3.74,1.32,9.46,3.34,11.44,6.33,11.32,17.64-7-2.45-13.78-4.86-20.61-7.21C150.86,118,152.18,115.07,152.15,112.83Zm.65,15c2.42-2.88,6.49,1.74,10.11,2.23,11.19,1.52,16.48,8.13,15.1,20.31L154,142a2.45,2.45,0,0,1-1.79-2.63C152.29,135.37,150.83,130.16,152.8,127.79Zm-1,29c0-9.48,0-9.42,7.83-6.32,4.33,1.7,8.64,3.67,13.14,4.62,5.39,1.14,7.5,4,8.29,9.29,1.24,8.23,1.58,8.26-6.08,6.09-5.42-1.54-10.73-3.51-16.16-5C153.67,164.08,149.61,162.21,151.85,156.8Zm14.82,32.91c-3.81-1.14-7.55-2.55-11.39-3.54-2.46-.63-3.44-1.62-3.45-4.36-.05-12.27-.16-12.27,11.27-8.15,3,1.07,5.83,2.61,8.89,3.12,10.38,1.7,13.29,8.76,13.68,18.53C179.25,193.42,173,191.6,166.67,189.71Z"/></clipPath><clipPath id="clip-path-2"><path class="cls-1" d="M263.56,287.08a19.33,19.33,0,0,1-3-2c1-.84,1.61-1.36,2.24-1.83,13.25-12.16,11.47-32.89-3.53-41.72a35.7,35.7,0,0,0-18.07-5c-31.31-.09-62.61,0-93.92-.16-3.67,0-4.72.83-4.72,4.65q.25,45.91,0,91.92c0,3.95,1.09,4.95,5,4.95,30.8-.16,61.61-.09,92.42-.09,4.47,0,9,0,13.47-.38,12.61-.95,23.11-9.81,25.11-21.34C280.48,304.81,276.17,292.2,263.56,287.08ZM192,260.27h34.49c5.16,0,8,2.44,8.05,6.74s-2.66,7.23-7.63,7.26c-13.83.11-27.66,0-41.48.09-2.58,0-3.4-.76-3.52-3.38C181.41,260.26,181.32,260.27,192,260.27Zm48.84,50c-1.37,2.95-3.75,3.44-6.56,3.44l-24.44,0c-8.14,0-16.29-.07-24.44.05-2.51,0-3.42-.63-3.53-3.32-.41-10.63-.52-10.59,10.17-10.57h41.9C240.22,299.94,243.32,304.89,240.8,310.31Z"/></clipPath></defs><g id="Camada_2" data-name="Camada 2"><g id="Camada_1-2" data-name="Camada 1"><path class="cls-1" d="M138.67,269.11c0,8.49.28,17,0,25.47A43.71,43.71,0,0,1,106.46,335a137.12,137.12,0,0,1-73.13,0C12.4,329.31.57,313.36.44,291.73c0-4.3-1.38-9.91.77-12.55s8.11-.8,12.39-.88c7.32-.15,14.66.16,22-.11,3.64-.13,4.76,1.22,4.34,4.58a25.41,25.41,0,0,0,0,3.49c.13,12.57,3.9,17.89,16,20.25a67.39,67.39,0,0,0,30.2-.5c9.32-2.45,13.56-8,13.64-17.72q.18-23.73,0-47.46c0-3.54.6-5,4.56-4.86,10,.3,20,.23,30,0,3.6-.08,4.84.73,4.7,4.62-.34,9.48-.11,19-.11,28.48Z"/><path class="cls-2" d="M64,181.81c-.51,7.11-1.07,14.21-1.48,21.32-.11,1.87-.74,2.7-2.66,2.68-5.94-.06-11.88,0-18.52,0C47.28,196.24,57,190.54,64,181.81Z"/><path class="cls-3" d="M231.94,181.15c5.36,9.53,14.71,15.38,21.82,24.59H235.41c-1.39,0-2.12-.47-2.28-1.94C232.31,196.33,231.38,188.85,231.94,181.15Z"/><path class="cls-4" d="M214.46,104.54c3.73-1.25,4.8,1.48,6,4-3.21-1.5-1.67,1.23-1.63,2,.74,12.11,1.59,24.22,2.38,36.33q1.8,27.6,3.55,55.23c.08,1.27,1.22,3.42-1.26,3.44-1.9,0-1.26-2-1.32-3.19q-1.45-25.14-2.77-50.29c-.75-14.11-1.35-28.23-2.23-42.33C217.06,107.94,218.32,104.72,214.46,104.54Z"/><path class="cls-5" d="M193,168.62c-1-5.27.77-7.43,5.57-8.22,5-.82,9.84-2.7,14.78-4,1.33-.34,3.43-1.87,3.67,1.18.17,2.11,1.34,4.62-2.25,5.47C207.52,164.75,200.37,166.71,193,168.62Z"/><path class="cls-6" d="M215.93,144.65c1.56,4.83,1,7.75-4.72,8.36-4.74.5-9.34,2.27-14.06,3.2-1.21.24-3.44,2-3.92-.82-.36-2.09-.27-4.23,2.7-5C202.67,148.62,209.28,146.54,215.93,144.65Z"/><path class="cls-6" d="M215.32,126.72c.58,2.64-.44,3.54-2.64,4-4.64,1.08-9.19,2.57-13.83,3.71-1.22.3-3.18,2.18-3.75.06-.51-1.91-1.1-5.07,1.62-6a138.17,138.17,0,0,1,17.05-5C216.54,122.91,214.84,125.87,215.32,126.72Z"/><path class="cls-7" d="M194.11,146.42c-1.18-4.4.39-6.65,4.29-7.7,4.48-1.21,8.86-2.76,13.36-3.86,1.26-.31,3.63-2.14,4,.52.26,1.78,1.43,4.76-2.09,5.67C207.17,142.75,200.67,144.61,194.11,146.42Z"/><path class="cls-8" d="M214.67,114c.6,4-.56,5.37-3.67,6-3.85.79-7.54,2.37-11.33,3.53-1.28.4-3.2,2-3.81.22-.67-2-1-4.9,1.75-6,5-2.14,10.06-4.15,15.22-5.83C215.91,110.83,214.61,113.62,214.67,114Z"/><path class="cls-8" d="M104.07,139.4c-5.64-1.92-11-4-16.55-5.54-4-1.13-2.48-3.85-2-5.91.75-3,2.85-.9,4.2-.42,3.41,1.2,6.64,3,10.08,4C103.75,132.69,105.25,134.88,104.07,139.4Z"/><path class="cls-5" d="M87,114.72c4.89,1.93,9.58,4,14.45,5.62,3.23,1,3.84,3.22,3,5.72-1,2.75-3.06.45-4.44.1-3-.77-5.88-2.4-8.93-3C86,122.17,84.77,119.64,87,114.72Z"/><path class="cls-9" d="M87.87,95c0-2.65.09-4.65,3.79-2.63a90.71,90.71,0,0,0,12.28,5.29c2.61,1,2.7,2.8,2.16,4.74-.77,2.8-2.54.93-3.92.5-3.79-1.2-7.56-2.43-11.34-3.65C88.81,98.61,87,97.75,87.87,95Z"/><path class="cls-5" d="M105.59,113c0,1.83-.2,3-2.5,2.19-4.34-1.58-8.68-3.19-13.13-4.4-3.61-1-3.15-3.38-2.38-5.77,1-3.18,3-.66,4.25-.24,3.76,1.24,7.36,2.93,11.07,4.3C104.87,109.79,106.05,110.84,105.59,113Z"/><path class="cls-1" d="M276.58,146c-.25-11.15-.31-22.32,0-33.47.11-3.87-1.43-4.73-4.77-5.08-6.18-.63-12.3.41-18.46.27-9.56-.22-16.94-4.54-20.94-12.86-3.69-7.7-1.64-15.53,3.07-22.62,4.19-6.33,9.87-11.22,15.72-15.9,2.37-1.91,2.77-3.39.3-5.78q-12.92-12.45-25.3-25.29c-2-2.06-3.2-1.7-4.8.07-3.79,4.18-7.6,8.33-11.4,12.5-6.52,7.15-14.6,9.8-23.89,7.45-9.53-2.41-14.54-9.07-16.31-18.66a70.61,70.61,0,0,1-.38-21.86c.42-3.28-.34-4.83-4.12-4.75-11.69.24-23.35.24-35,.14-2.91,0-3.7,1-3.63,3.78a115.38,115.38,0,0,1-1.33,23.41c-1.44,8.18-5.87,13.61-13.87,16.61-10,3.84-17.9-.07-25.17-6.16A167.87,167.87,0,0,1,73.51,25.26c-1.6-1.67-2.5-1.87-4.28-.09C60,34.42,50.55,43.52,41,52.89c2.67,2.56,4.8,4.65,7,6.65A90.83,90.83,0,0,1,59.12,71.67c5.8,7.63,6.52,15.82,2.64,24.39s-11.08,12-20,12.3c-6.47.18-13-.27-19.47-.33-2.33,0-4,.41-4,3.62.13,11.65.07,23.31-.26,34.95-.1,4,1.54,4.9,5,4.59,3.68-.34,7.34-.67,11-.67,12.58-.15,24.25,1.84,31.38,15.19,1.47-18.47,3.42-35.84,4-53.26.39-11,8-17.53,12.58-26a5.46,5.46,0,0,1,.43,2.65q-3.25,45.81-6.5,91.62-.73,11.22-1.48,22.42c-.1,1.42.11,2.84,1.81,2.88s.84-1.41.9-2.15C78.67,183,80,162,81.54,141.14c1.28-16.93,2.78-33.84,4-50.76.29-3.48,1.34-3.86,4.29-2.48,5.12,2.38,10.35,4.53,15.59,6.62,1.91.79,2.91,1.77,2.91,4,.18,14.63.65,29.25-3.47,43.57-.66,2.29-.87,2.83-3.39,2-5.63-1.86-10.92-4.8-16.92-5.5-1.21,7.41-1,7.79,5.68,10.07,3,1,6,1.87,8.91,3,1,.38,2,.81,2.12,2.54-4.73-1.09-8.84-2.77-13.05-4.16-1.58-.52-3.46-1.9-4.58.76l-.24,4.75c-.86,3.42,2.1,3.17,3.87,3.93,4,1.69,8.57,2,12.34,5.1-2.4,1.37-4,0-5.63-.45-3.87-1.07-7.34-3.23-11.28-4.12-.1,1.85-.19,3.69-.29,5.54-1.21,3.27.34,4.71,3.34,5.71,3.87,1.29,8.19,1.71,12.35,5.48-4.51-.29-7.36-2-10.46-2.81-2-.53-4.43-2.2-6,.89l-.17,4.72c-1,3.27,1.81,2.87,3.46,3.45,3.51,1.29,7.45,1.65,10.28,4.48-2.88.55-5.25-.72-7.71-1.56-5.77-2-5.93-1.91-6.84,4.09-.2,2.57,1.56,3.35,3.56,3.9,2.88.77,5.71,1.81,8.62,2.36,2.46.47,2.73,1.48,2.24,3.76C93.86,205.81,94,206,100.29,206q43.92,0,87.86.05c10.64,0,10.75,0,8.13-10.4-.68-2.66.14-3,2.42-3.28,5.77-.69,11.49-1.78,17.26-2.5,5.37-.68,1.87-4.29,2.17-6.52.38-2.82-1.45-2.54-3.55-2.07-5.67,1.28-11.41,2.22-17.08,3.5-1.89.43-3.42,1.16-4-1.68-.48-2.36.31-3.37,2.58-3.77,4.73-.84,9.42-2,14.17-2.69,8-1.21,8.14-1.33,6.78-9.78-6.26,1.7-12.5,3.34-18.71,5.09-6.91,1.94-7.78,1.31-7.4-5.69.89-16.28,1.82-32.55,2.51-48.84.1-3.15,1.19-4.74,4.1-5.83,5.75-2.13,11.35-4.64,17-7,3.25-.54,3.8,3,6,4,1.77,5.28,5.92,9.44,6.21,15.52.63,13.29,1.86,26.55,2.86,39.82.07.92-.74,2.35,1.14,2.84,2.36-7.13,7.81-10.87,14.6-13A73.6,73.6,0,0,1,272,150.66C275.9,150.9,276.66,149.61,276.58,146Zm-148-74.78c4.17-2.6,7.76-6.15,12.23-9.78V76a2.3,2.3,0,0,1-1,1.53c-6.31,4.07-12.52,8.08-19.31,12.48C120.58,82,121.62,75.5,128.54,71.2Zm-11.85,37.73c.21-7.4,2.52-13.18,10-16.46,5-2.12,9.23-5.7,14.5-9.09,0,4.82-.06,8.74,0,12.67,0,1.84-1.11,2.62-2.44,3.4-6.42,3.81-12.83,7.65-19.28,11.43a3.28,3.28,0,0,1-2.27.62C116,111.05,116.67,109.84,116.69,108.93Zm6.57,6.51c6.09-2.28,11.46-6.47,17.91-10.25v13.48c0,1.37-.92,2.06-2,2.62l-25.62,13.36C114.45,126.45,113.92,118.94,123.26,115.44Zm-11.88,26.74c.33-2,2.28-2.34,3.65-3,7.75-3.75,15.61-7.27,23.38-11,2-1,3.14-1.08,2.92,1.63v1c-.75,14.13,2.36,10.52-10.88,16.38-6.78,3-13.71,5.64-21.3,8.75C110,150.94,110.67,146.54,111.38,142.18Zm22.34,46.64c-8.79,2.93-17.38,6.5-26,10-2.68,1.08-4.19,1.28-3.54-2.32a5.33,5.33,0,0,0,.12-1.49c-.63-7.06,2.12-11.21,9.33-13.3,7.43-2.15,14.47-5.67,21.67-8.61,5.58-2.29,5.57-2.31,5.61,3.78l0,2.78C142.54,185.1,138.93,187.09,133.72,188.82Zm-2.38-21c-8,3.38-16.08,6.74-24.48,10.29-.35-4.88,1.2-8.83,1.66-12.92.17-1.48,1.21-1.82,2.26-2.32l27.45-13c1.74-.82,2.92-.69,2.86,1.63a4.17,4.17,0,0,0,0,.5C142,163.41,142,163.39,131.34,167.8Zm28.65-81a9.21,9.21,0,0,0,1.78.88c8.8,2.16,10.54,8.73,10.37,17.13-6.2-2.52-12-4.94-17.85-7.25-2.8-1.11-2.09-3.45-2.11-5.5C152.08,82.92,152.1,82.92,160,86.79ZM152,73V62.24a57.43,57.43,0,0,1,15.3,10.31c2.77,2.7,2.36,7.66,3.52,13-6.41-3.47-11.74-6.37-17.09-9.25A3.24,3.24,0,0,1,152,73Zm.14,39.83c-.1-8.5,0-8.49,7.73-5.42,1.23.48,2.5.88,3.74,1.32,9.46,3.34,11.44,6.33,11.32,17.64-7-2.45-13.78-4.86-20.61-7.21C150.86,118,152.18,115.07,152.15,112.83Zm.65,15c2.42-2.88,6.49,1.74,10.11,2.23,11.19,1.52,16.48,8.13,15.1,20.31L154,142a2.45,2.45,0,0,1-1.79-2.63C152.29,135.37,150.83,130.16,152.8,127.79Zm-1,29c0-9.48,0-9.42,7.83-6.32,4.33,1.7,8.64,3.67,13.14,4.62,5.39,1.14,7.5,4,8.29,9.29,1.24,8.23,1.58,8.26-6.08,6.09-5.42-1.54-10.73-3.51-16.16-5C153.67,164.08,149.61,162.21,151.85,156.8Zm14.82,32.91c-3.81-1.14-7.55-2.55-11.39-3.54-2.46-.63-3.44-1.62-3.45-4.36-.05-12.27-.16-12.27,11.27-8.15,3,1.07,5.83,2.61,8.89,3.12,10.38,1.7,13.29,8.76,13.68,18.53C179.25,193.42,173,191.6,166.67,189.71Z"/><g class="cls-10"><path class="cls-1" d="M167.31,72.55A57.43,57.43,0,0,0,152,62.24V73a3.24,3.24,0,0,0,1.73,3.29c5.35,2.88,10.68,5.78,17.09,9.25C169.67,80.21,170.08,75.25,167.31,72.55Zm-5.54,15.12a9.21,9.21,0,0,1-1.78-.88c-7.89-3.87-7.91-3.87-7.81,5.26,0,2-.69,4.39,2.11,5.5,5.85,2.31,11.65,4.73,17.85,7.25C172.31,96.4,170.57,89.83,161.77,87.67ZM128.54,71.2c-6.92,4.3-8,10.8-8.08,18.8,6.79-4.4,13-8.41,19.31-12.48a2.3,2.3,0,0,0,1-1.53V61.42C136.3,65.05,132.71,68.6,128.54,71.2Zm35.08,37.53c-1.24-.44-2.51-.84-3.74-1.32-7.73-3.07-7.83-3.08-7.73,5.42,0,2.24-1.29,5.13,2.18,6.33,6.83,2.35,13.61,4.76,20.61,7.21C175.06,115.06,173.08,112.07,163.62,108.73ZM141.19,83.38c-5.27,3.39-9.52,7-14.5,9.09-7.48,3.28-9.79,9.06-10,16.46,0,.91-.72,2.12.51,2.57a3.28,3.28,0,0,0,2.27-.62c6.45-3.78,12.86-7.62,19.28-11.43,1.33-.78,2.44-1.56,2.44-3.4C141.13,92.12,141.19,88.2,141.19,83.38ZM162.91,130c-3.62-.49-7.69-5.11-10.11-2.23-2,2.37-.51,7.58-.58,11.58A2.45,2.45,0,0,0,154,142l24,8.33C179.39,138.15,174.1,131.54,162.91,130Zm-39.65-14.58c-9.34,3.5-8.81,11-9.71,19.21l25.62-13.36c1.08-.56,2-1.25,2-2.62V105.19C134.72,109,129.35,113.16,123.26,115.44Zm57.85,48.95c-.79-5.29-2.9-8.15-8.29-9.29-4.5-.95-8.81-2.92-13.14-4.62-7.83-3.1-7.83-3.16-7.83,6.32-2.24,5.41,1.82,7.28,7,8.68,5.43,1.49,10.74,3.46,16.16,5C182.69,172.65,182.35,172.62,181.11,164.39Zm-42.7-36.21c-7.77,3.73-15.63,7.25-23.38,11-1.37.66-3.32,1-3.65,3-.71,4.36-1.41,8.76-2.23,13.76,7.59-3.11,14.52-5.75,21.3-8.75,13.24-5.86,10.13-2.25,10.88-16.38v-1C141.55,127.1,140.41,127.18,138.41,128.18ZM172,176.78c-3.06-.51-5.89-2.05-8.89-3.12-11.43-4.12-11.32-4.12-11.27,8.15,0,2.74,1,3.73,3.45,4.36,3.84,1,7.58,2.4,11.39,3.54,6.29,1.89,12.58,3.71,19,5.6C185.28,185.54,182.37,178.48,172,176.78ZM141.09,152a4.17,4.17,0,0,1,0-.5c.06-2.32-1.12-2.45-2.86-1.63l-27.45,13c-1,.5-2.09.84-2.26,2.32-.46,4.09-2,8-1.66,12.92,8.4-3.55,16.43-6.91,24.48-10.29C142,163.39,142,163.41,141.09,152Zm-.16,27.68,0-2.78c0-6.09,0-6.07-5.61-3.78-7.2,2.94-14.24,6.46-21.67,8.61-7.21,2.09-10,6.24-9.33,13.3a5.33,5.33,0,0,1-.12,1.49c-.65,3.6.86,3.4,3.54,2.32,8.62-3.5,17.21-7.07,26-10C138.93,187.09,142.54,185.1,140.93,179.66ZM172,176.78c-3.06-.51-5.89-2.05-8.89-3.12-11.43-4.12-11.32-4.12-11.27,8.15,0,2.74,1,3.73,3.45,4.36,3.84,1,7.58,2.4,11.39,3.54,6.29,1.89,12.58,3.71,19,5.6C185.28,185.54,182.37,178.48,172,176.78Zm-13.12-11.3c5.43,1.49,10.74,3.46,16.16,5,7.66,2.17,7.32,2.14,6.08-6.09-.79-5.29-2.9-8.15-8.29-9.29-4.5-.95-8.81-2.92-13.14-4.62-7.83-3.1-7.83-3.16-7.83,6.32C149.61,162.21,153.67,164.08,158.87,165.48ZM154,142l24,8.33c1.38-12.18-3.91-18.79-15.1-20.31-3.62-.49-7.69-5.11-10.11-2.23-2,2.37-.51,7.58-.58,11.58A2.45,2.45,0,0,0,154,142Zm.32-22.84c6.83,2.35,13.61,4.76,20.61,7.21.12-11.31-1.86-14.3-11.32-17.64-1.24-.44-2.51-.84-3.74-1.32-7.73-3.07-7.83-3.08-7.73,5.42C152.18,115.07,150.86,118,154.33,119.16Zm0-21.61c5.85,2.31,11.65,4.73,17.85,7.25.17-8.4-1.57-15-10.37-17.13a9.21,9.21,0,0,1-1.78-.88c-7.89-3.87-7.91-3.87-7.81,5.26C152.2,94.1,151.49,96.44,154.29,97.55Zm-.55-21.26c5.35,2.88,10.68,5.78,17.09,9.25-1.16-5.33-.75-10.29-3.52-13A57.43,57.43,0,0,0,152,62.24V73A3.24,3.24,0,0,0,153.74,76.29Zm-12.41,54.52v-1c.22-2.71-.92-2.63-2.92-1.63-7.77,3.73-15.63,7.25-23.38,11-1.37.66-3.32,1-3.65,3-.71,4.36-1.41,8.76-2.23,13.76,7.59-3.11,14.52-5.75,21.3-8.75C143.69,141.33,140.58,144.94,141.33,130.81Zm-.16-12.14V105.19c-6.45,3.78-11.82,8-17.91,10.25-9.34,3.5-8.81,11-9.71,19.21l25.62-13.36C140.25,120.73,141.17,120,141.17,118.67Zm-24-7.17a3.28,3.28,0,0,0,2.27-.62c6.45-3.78,12.86-7.62,19.28-11.43,1.33-.78,2.44-1.56,2.44-3.4-.06-3.93,0-7.85,0-12.67-5.27,3.39-9.52,7-14.5,9.09-7.48,3.28-9.79,9.06-10,16.46C116.67,109.84,116,111.05,117.2,111.5Zm23.89,40c.06-2.32-1.12-2.45-2.86-1.63l-27.45,13c-1,.5-2.09.84-2.26,2.32-.46,4.09-2,8-1.66,12.92,8.4-3.55,16.43-6.91,24.48-10.29C142,163.39,142,163.41,141.09,152A4.17,4.17,0,0,1,141.09,151.48Zm-.18,25.4c0-6.09,0-6.07-5.61-3.78-7.2,2.94-14.24,6.46-21.67,8.61-7.21,2.09-10,6.24-9.33,13.3a5.33,5.33,0,0,1-.12,1.49c-.65,3.6.86,3.4,3.54,2.32,8.62-3.5,17.21-7.07,26-10,5.21-1.73,8.82-3.72,7.21-9.16ZM140.77,76V61.42c-4.47,3.63-8.06,7.18-12.23,9.78-6.92,4.3-8,10.8-8.08,18.8,6.79-4.4,13-8.41,19.31-12.48A2.3,2.3,0,0,0,140.77,76Z"/></g><path class="cls-1" d="M263.56,287.08a19.33,19.33,0,0,1-3-2c1-.84,1.61-1.36,2.24-1.83,13.25-12.16,11.47-32.89-3.53-41.72a35.7,35.7,0,0,0-18.07-5c-31.31-.09-62.61,0-93.92-.16-3.67,0-4.72.83-4.72,4.65q.25,45.91,0,91.92c0,3.95,1.09,4.95,5,4.95,30.8-.16,61.61-.09,92.42-.09,4.47,0,9,0,13.47-.38,12.61-.95,23.11-9.81,25.11-21.34C280.48,304.81,276.17,292.2,263.56,287.08ZM192,260.27h34.49c5.16,0,8,2.44,8.05,6.74s-2.66,7.23-7.63,7.26c-13.83.11-27.66,0-41.48.09-2.58,0-3.4-.76-3.52-3.38C181.41,260.26,181.32,260.27,192,260.27Zm48.84,50c-1.37,2.95-3.75,3.44-6.56,3.44l-24.44,0c-8.14,0-16.29-.07-24.44.05-2.51,0-3.42-.63-3.53-3.32-.41-10.63-.52-10.59,10.17-10.57h41.9C240.22,299.94,243.32,304.89,240.8,310.31Z"/><g class="cls-11"><path class="cls-1" d="M226.45,260.28H192c-10.64,0-10.55,0-10.09,10.72.12,2.62.94,3.38,3.52,3.38,13.82-.09,27.65,0,41.48-.09,5,0,7.68-3,7.63-7.26S231.61,260.28,226.45,260.28Zm7.45,39.66H192c-10.69,0-10.58-.06-10.17,10.57.11,2.69,1,3.32,3.53,3.32,8.15-.12,16.3-.05,24.44-.05l24.44,0c2.81,0,5.19-.49,6.56-3.44C243.32,304.89,240.22,299.94,233.9,299.94Zm0,0H192c-10.69,0-10.58-.06-10.17,10.57.11,2.69,1,3.32,3.53,3.32,8.15-.12,16.3-.05,24.44-.05l24.44,0c2.81,0,5.19-.49,6.56-3.44C243.32,304.89,240.22,299.94,233.9,299.94Zm-48.51-25.57c13.82-.09,27.65,0,41.48-.09,5,0,7.68-3,7.63-7.26s-2.89-6.74-8.05-6.74H192c-10.64,0-10.55,0-10.09,10.72C182,273.61,182.81,274.37,185.39,274.37Z"/></g></g></g></svg>